<svg xmlns="http://www.w3.org/2000/svg" x="0px" y="0px" width="100px" height="100px" viewBox="0 0 100 100" enable-background="new 0 0 100 100" ><defs><style>.cls-1{fill:#f79233;}.cls-2{fill:none;stroke:#fff;stroke-miterlimit:10;stroke-width:0.29px;}.cls-3{fill:#fff;}</style></defs><title>Asset 1</title><g id="Layer_2" data-name="Layer 2"><g id="Layer_1-2" data-name="Layer 1"><path class="cls-1" d="M7.9,32a2.41,2.41,0,0,1-.75,1.8,2.47,2.47,0,0,1-1.77.72,2.52,2.52,0,0,1-1.82-.72A2.41,2.41,0,0,1,2.81,32a2.46,2.46,0,0,1,.75-1.81,2.47,2.47,0,0,1,1.82-.75,2.42,2.42,0,0,1,1.77.75A2.46,2.46,0,0,1,7.9,32Z"/><path class="cls-1" d="M30.4,15.32A14.34,14.34,0,0,1,25.92,26a14.64,14.64,0,0,1-10.6,4.35A14.93,14.93,0,0,1,4.47,26,14.3,14.3,0,0,1,0,15.32,14.74,14.74,0,0,1,4.47,4.47,14.72,14.72,0,0,1,15.32,0a14.44,14.44,0,0,1,10.6,4.47A14.79,14.79,0,0,1,30.4,15.32Z"/><line class="cls-2" x1="5.35" y1="31.99" x2="16.58" y2="15.19"/><path class="cls-3" d="M5.87,32.17a.61.61,0,0,1-.18.45.64.64,0,0,1-.45.18.63.63,0,0,1-.45-.18.63.63,0,0,1,0-.9.6.6,0,0,1,.45-.19.63.63,0,0,1,.63.64Z"/><path class="cls-3" d="M17.17,15.39a.63.63,0,0,1-.63.63.65.65,0,0,1-.46-.18.62.62,0,0,1-.19-.45.66.66,0,0,1,.19-.46.65.65,0,0,1,.46-.18.62.62,0,0,1,.44.18A.66.66,0,0,1,17.17,15.39Z"/></g></g></svg>