<svg xmlns="http://www.w3.org/2000/svg" viewBox="0 0 130.6 62.75"><defs><style>.cls-1{fill:#42484f;}.cls-2{fill:#f79233;}.cls-3{fill:none;stroke:#fff;stroke-miterlimit:10;stroke-width:0.4px;}.cls-4{fill:#fff;}</style></defs><title>w1</title><g id="Layer_2" data-name="Layer 2"><g id="Layer_1-2" data-name="Layer 1"><path class="cls-1" d="M16.21,49.35a5.26,5.26,0,0,1,1.93,2,5.85,5.85,0,0,1,.71,2.85v8.28H16.29V54.24a3.15,3.15,0,0,0-.8-2.2,2.7,2.7,0,0,0-4,0,3.15,3.15,0,0,0-.8,2.2v8.28H8.15V54.24a3.15,3.15,0,0,0-.8-2.2,2.61,2.61,0,0,0-2-.88,2.59,2.59,0,0,0-2,.88,3.11,3.11,0,0,0-.8,2.2v8.28H0V48.81H2.56v.61a5,5,0,0,1,2.79-.81,5.09,5.09,0,0,1,2.29.51,4.92,4.92,0,0,1,1.78,1.42,5.29,5.29,0,0,1,1.81-1.42,4.94,4.94,0,0,1,2.27-.51A5.09,5.09,0,0,1,16.21,49.35Z"/><path class="cls-2" d="M30,43.68a3.28,3.28,0,0,1-1,2.45,3.36,3.36,0,0,1-2.42,1,3.43,3.43,0,0,1-2.48-1,3.28,3.28,0,0,1-1-2.45,3.48,3.48,0,0,1,3.5-3.5,3.31,3.31,0,0,1,2.42,1A3.38,3.38,0,0,1,30,43.68Z"/><path class="cls-2" d="M60.69,20.91a19.58,19.58,0,0,1-6.1,14.62,20,20,0,0,1-14.47,5.93,20.39,20.39,0,0,1-14.81-5.93,19.53,19.53,0,0,1-6.09-14.62A20.16,20.16,0,0,1,25.31,6.09,20.14,20.14,0,0,1,40.12,0,19.75,19.75,0,0,1,54.59,6.09,20.21,20.21,0,0,1,60.69,20.91Z"/><rect class="cls-1" x="25.24" y="48.81" width="2.56" height="13.7"/><path class="cls-1" d="M42.88,49.39A5.88,5.88,0,0,1,45,51.61a6.39,6.39,0,0,1,.77,3.1v7.81H43.18V54.71a3.71,3.71,0,0,0-.92-2.54,2.91,2.91,0,0,0-2.29-1,3,3,0,0,0-2.31,1,3.64,3.64,0,0,0-.93,2.55v7.81H34.17V48.81h2.56v.79a5.64,5.64,0,0,1,6.15-.21Z"/><path class="cls-1" d="M64.61,44.25V62.52H62.05V61.29a6.3,6.3,0,0,1-1.88,1.09,6.58,6.58,0,0,1-5.55-.56,6.82,6.82,0,0,1-2.41-2.56,7.34,7.34,0,0,1-.89-3.58,7.43,7.43,0,0,1,.89-3.59,6.78,6.78,0,0,1,2.41-2.57A6.27,6.27,0,0,1,58,48.58a6.16,6.16,0,0,1,2.19.39,6.32,6.32,0,0,1,1.88,1.1V44.25ZM60.05,59.61A4.12,4.12,0,0,0,61.52,58a5.3,5.3,0,0,0,0-4.62,4.22,4.22,0,0,0-1.47-1.63,3.69,3.69,0,0,0-2.07-.6,3.8,3.8,0,0,0-2.09.6,4.07,4.07,0,0,0-1.47,1.63,5.21,5.21,0,0,0,0,4.62,4,4,0,0,0,1.47,1.62A3.88,3.88,0,0,0,58,60.2,3.76,3.76,0,0,0,60.05,59.61Z"/><path class="cls-1" d="M79.59,61.92a4.51,4.51,0,0,1-2.66.83,4.62,4.62,0,0,1-2.43-.66,4.69,4.69,0,0,1-1.73-1.83,5.19,5.19,0,0,1-.64-2.57V51.35H69.75V48.79h2.38V44.25h2.56v4.54h3.65v2.56H74.69v6.34a2.59,2.59,0,0,0,.64,1.79,2,2,0,0,0,1.6.72,2.08,2.08,0,0,0,1.2-.37Z"/><path class="cls-1" d="M96.54,57H86.36a4.37,4.37,0,0,0,1.43,2.34,3.94,3.94,0,0,0,4.15.54,3.66,3.66,0,0,0,1.33-1l2,1.67A6.6,6.6,0,0,1,93,62.17a6.55,6.55,0,0,1-6.06-.35,6.75,6.75,0,0,1-2.41-2.56,7.34,7.34,0,0,1-.89-3.58,7.7,7.7,0,0,1,.85-3.62,6.44,6.44,0,0,1,2.32-2.55,6.25,6.25,0,0,1,6.56,0,6.51,6.51,0,0,1,2.32,2.55,7.82,7.82,0,0,1,.85,3.62ZM93.82,54.4a4.65,4.65,0,0,0-1.3-2.35,3.7,3.7,0,0,0-4.87,0,4.37,4.37,0,0,0-1.29,2.34Z"/><path class="cls-1" d="M108.44,62.75a6.37,6.37,0,0,1-3.38-.93,6.75,6.75,0,0,1-2.41-2.56,7.23,7.23,0,0,1-.89-3.58,7.32,7.32,0,0,1,.89-3.59,6.7,6.7,0,0,1,2.41-2.57,6.48,6.48,0,0,1,8.31,1.33l-1.93,1.67a4,4,0,0,0-5.1-.78,4.12,4.12,0,0,0-1.49,1.63,5.3,5.3,0,0,0,0,4.62,4,4,0,0,0,1.49,1.62,3.94,3.94,0,0,0,2.1.59,3.85,3.85,0,0,0,3-1.39l1.93,1.67a6.25,6.25,0,0,1-2.21,1.69A6.48,6.48,0,0,1,108.44,62.75Z"/><path class="cls-1" d="M127.72,49.4a5.8,5.8,0,0,1,2.11,2.23,6.38,6.38,0,0,1,.77,3.14v7.75h-2.55V54.77a3.77,3.77,0,0,0-.94-2.59,3.18,3.18,0,0,0-4.7,0,3.72,3.72,0,0,0-.94,2.59v7.75h-2.56V44.25h2.56v5.37a5.71,5.71,0,0,1,3.29-1A5.55,5.55,0,0,1,127.72,49.4Z"/><line class="cls-3" x1="26.52" y1="43.65" x2="41.84" y2="20.73"/><path class="cls-4" d="M27.23,43.89a.83.83,0,0,1-.25.62.91.91,0,0,1-1.23,0,.83.83,0,0,1-.25-.62.87.87,0,1,1,1.73,0Z"/><path class="cls-4" d="M42.64,21a.83.83,0,0,1-.26.61.86.86,0,0,1-.6.25.89.89,0,0,1-.62-.25.86.86,0,0,1,0-1.23.85.85,0,0,1,.62-.26.83.83,0,0,1,.6.26A.84.84,0,0,1,42.64,21Z"/></g></g></svg>