<?xml version="1.0" standalone="no"?>
<!DOCTYPE svg PUBLIC "-//W3C//DTD SVG 20010904//EN"
 "http://www.w3.org/TR/2001/REC-SVG-20010904/DTD/svg10.dtd">
<svg version="1.0" xmlns="http://www.w3.org/2000/svg"
 width="200.000000pt" height="200.000000pt" viewBox="0 0 200.000000 200.000000"
 preserveAspectRatio="xMidYMid meet">
<g transform="translate(0.000000,200.000000) scale(0.100000,-0.100000)"
fill="#ffffff" stroke="none">
<path d="M700 1993 c-289 -48 -536 -246 -643 -515 -43 -106 -57 -183 -57 -314
0 -228 73 -413 229 -578 81 -85 213 -174 298 -200 l23 -7 0 144 0 145 -28 5
c-23 5 -32 17 -55 73 -29 68 -67 212 -67 250 l0 22 72 -19 c40 -11 113 -24
163 -30 49 -6 105 -13 123 -15 l32 -5 0 -78 0 -78 39 -11 c21 -7 41 -12 45
-12 3 0 6 40 6 90 l0 89 33 5 c17 3 63 8 101 12 37 3 110 16 162 29 52 12 94
19 94 14 0 -20 -30 -148 -45 -188 -8 -24 -13 -47 -9 -50 3 -3 34 24 68 59 58
60 64 70 70 120 14 107 11 103 89 142 40 21 87 47 105 58 l32 22 0 -24 c0 -23
-12 -103 -26 -166 l-7 -33 49 3 49 3 12 55 c16 78 15 225 -1 312 -64 334 -318
592 -652 663 -63 13 -244 18 -304 8z m85 -421 c-7 -8 -145 15 -211 34 l-54 15
17 31 c27 45 131 156 193 205 l55 43 3 -161 c1 -89 0 -164 -3 -167z m155 283
c80 -59 213 -215 197 -231 -11 -11 -138 -43 -198 -50 l-59 -7 0 162 c0 88 3
161 6 161 4 0 28 -16 54 -35z m-394 -36 c-25 -28 -60 -73 -78 -100 -17 -27
-35 -49 -40 -49 -12 0 -78 44 -78 52 0 14 85 73 158 110 42 21 78 38 80 38 2
0 -17 -23 -42 -51z m701 -39 c37 -25 68 -51 67 -56 0 -5 -18 -21 -40 -36 l-39
-26 -34 51 c-19 29 -54 75 -78 104 l-45 52 51 -21 c27 -12 80 -42 118 -68z
m-914 -166 l53 -36 -28 -80 c-31 -87 -58 -225 -58 -294 l0 -44 -47 24 c-63 31
-153 98 -153 112 0 28 45 154 76 214 31 59 89 140 100 140 2 0 28 -16 57 -36z
m1100 -11 c49 -68 93 -160 116 -242 l20 -71 -35 -28 c-18 -15 -62 -44 -96 -65
l-63 -38 -12 96 c-12 98 -41 218 -68 282 -9 20 -14 38 -12 40 12 11 103 73
109 73 3 0 22 -21 41 -47z m-858 -95 c39 -10 103 -21 143 -25 l72 -6 0 -213 0
-214 -44 0 c-58 0 -206 26 -288 50 l-68 21 0 39 c0 75 22 196 52 288 25 76 34
92 47 86 9 -3 48 -15 86 -26z m630 -5 c48 -114 90 -368 63 -384 -26 -16 -224
-59 -305 -65 l-83 -7 0 215 0 215 73 6 c54 5 204 41 234 56 2 0 10 -16 18 -36z
m-940 -433 c31 -10 32 -13 44 -96 6 -46 22 -120 35 -164 13 -44 21 -80 18 -80
-18 0 -130 70 -171 108 -42 40 -53 58 -71 117 -11 38 -23 102 -27 142 l-6 74
73 -45 c40 -25 88 -50 105 -56z"/>
<path d="M1881 1109 c-46 -10 -86 -21 -89 -24 -3 -3 5 -16 18 -30 l24 -26 -74
-74 -74 -75 -126 0 -125 0 -85 -85 -85 -85 -113 -37 -112 -37 -127 41 -126 42
-84 -45 -83 -46 0 -44 c0 -29 4 -44 13 -44 6 1 45 18 86 39 l75 38 123 -41
123 -40 143 47 142 47 80 80 80 80 125 0 125 0 85 85 84 85 28 -27 c21 -20 29
-23 32 -12 9 25 36 171 36 190 0 23 -10 23 -119 -2z"/>
<path d="M1815 770 l-59 -60 -68 0 -68 0 0 -355 0 -355 130 0 130 0 0 415 c0
228 -1 415 -3 415 -1 0 -29 -27 -62 -60z"/>
<path d="M1431 636 c-42 -43 -86 -78 -105 -83 l-31 -9 -3 -272 -2 -272 130 0
130 0 0 355 0 355 -23 0 c-15 0 -48 -25 -96 -74z"/>
<path d="M708 494 l-88 -44 0 -225 0 -225 130 0 130 0 0 255 0 255 -22 9 c-56
21 -64 19 -150 -25z"/>
<path d="M1115 484 c-66 -24 -72 -25 -117 -11 l-48 15 0 -244 0 -244 130 0
130 0 0 255 c0 198 -3 255 -12 254 -7 0 -44 -12 -83 -25z"/>
</g>
</svg>
