<svg xmlns="http://www.w3.org/2000/svg" viewBox="0 0 192.96 186.44"><defs><style>.cls-1{fill:#f69132;}.cls-2{fill:none;stroke:#fff;stroke-miterlimit:10;stroke-width:0.32px;}.cls-3{fill:#fff;}</style></defs><title>team icon</title><g id="Layer_2" data-name="Layer 2"><g id="Layer_1-2" data-name="Layer 1"><circle class="cls-1" cx="96" cy="101.71" r="44.99"/><path class="cls-1" d="M98.68,36.63a2.59,2.59,0,0,1,.2,2.12,2.67,2.67,0,0,1-1.33,1.61,2.79,2.79,0,0,1-2.13.23,2.6,2.6,0,0,1-1.64-1.35,2.65,2.65,0,0,1-.21-2.13A2.75,2.75,0,0,1,97,35.26,2.68,2.68,0,0,1,98.68,36.63Z"/><path class="cls-1" d="M110.73,9a15.77,15.77,0,0,1,1.19,12.65,16,16,0,0,1-8,9.64,16.36,16.36,0,0,1-12.71,1.38,15.6,15.6,0,0,1-9.82-8.05,16.12,16.12,0,0,1-1.27-12.77,16.16,16.16,0,0,1,8.18-9.89A15.8,15.8,0,0,1,100.83.79,16.23,16.23,0,0,1,110.73,9Z"/><line class="cls-2" x1="96.23" y1="37.97" x2="96.23" y2="15.89"/><path class="cls-3" d="M96.81,37.82a.62.62,0,0,1,0,.53.63.63,0,0,1-.33.4.62.62,0,0,1-.53.06.64.64,0,0,1-.41-.33.73.73,0,0,1-.06-.54.68.68,0,0,1,.35-.41.63.63,0,0,1,.52-.05A.69.69,0,0,1,96.81,37.82Z"/><path class="cls-3" d="M96.84,15.83a.63.63,0,0,1,0,.52.68.68,0,0,1-.33.41.66.66,0,0,1-.53,0,.62.62,0,0,1-.41-.33.68.68,0,0,1,.29-1,.67.67,0,0,1,.52,0A.68.68,0,0,1,96.84,15.83Z"/><path class="cls-1" d="M158.15,84a2.64,2.64,0,0,1-2,.83,2.67,2.67,0,0,1-1.94-.78,2.71,2.71,0,0,1-.86-2,2.61,2.61,0,0,1,.78-2,2.79,2.79,0,0,1,4,0A2.65,2.65,0,0,1,159,82,2.7,2.7,0,0,1,158.15,84Z"/><path class="cls-1" d="M188.16,87.14a15.71,15.71,0,0,1-11.69,5,16,16,0,0,1-11.61-4.71A16.35,16.35,0,0,1,159.7,75.7a15.68,15.68,0,0,1,4.7-11.8,16.67,16.67,0,0,1,23.69-.26A15.82,15.82,0,0,1,193,75.24,16.17,16.17,0,0,1,188.16,87.14Z"/><line class="cls-2" x1="156.13" y1="82.09" x2="177.18" y2="75.41"/><path class="cls-3" d="M156.44,82.6a.63.63,0,0,1-.48.21.68.68,0,0,1-.49-.2.72.72,0,0,1-.22-.49.7.7,0,0,1,.2-.49.67.67,0,0,1,.49-.21.63.63,0,0,1,.5.2.67.67,0,0,1,.21.48A.69.69,0,0,1,156.44,82.6Z"/><path class="cls-3" d="M177.42,76a.68.68,0,0,1-1,0,.72.72,0,0,1-.22-.49.7.7,0,0,1,.69-.7.64.64,0,0,1,.5.2.66.66,0,0,1,.2.48A.68.68,0,0,1,177.42,76Z"/><path class="cls-1" d="M130.94,155a2.58,2.58,0,0,1-1.38-1.62,2.67,2.67,0,0,1,.16-2.09,2.75,2.75,0,0,1,1.6-1.41,2.62,2.62,0,0,1,2.12.15,2.68,2.68,0,0,1,1.41,1.63,2.71,2.71,0,0,1-.17,2.14,2.67,2.67,0,0,1-1.6,1.36A2.71,2.71,0,0,1,130.94,155Z"/><path class="cls-1" d="M137,184.58a15.69,15.69,0,0,1-8.25-9.65,16,16,0,0,1,1-12.48,16.29,16.29,0,0,1,9.59-8.46,15.67,15.67,0,0,1,12.66.92,16.7,16.7,0,0,1,7.41,22.51,15.82,15.82,0,0,1-9.59,8.14A16.24,16.24,0,0,1,137,184.58Z"/><line class="cls-2" x1="132.17" y1="152.52" x2="144.9" y2="170.57"/><path class="cls-3" d="M131.78,153a.62.62,0,0,1-.34-.4.63.63,0,0,1,0-.52.7.7,0,0,1,.93-.32.71.71,0,0,1,.35.41.7.7,0,0,1,0,.53.73.73,0,0,1-.4.35A.68.68,0,0,1,131.78,153Z"/><path class="cls-3" d="M144.43,171a.64.64,0,0,1-.34-.4.65.65,0,0,1,0-.53.69.69,0,0,1,.93-.31.68.68,0,0,1,.35.41.7.7,0,0,1,0,.53.7.7,0,0,1-.94.3Z"/><path class="cls-1" d="M55,150.55a2.74,2.74,0,0,1,3.16-2.28,2.75,2.75,0,0,1,1.84,1.1,2.65,2.65,0,0,1,.49,2.06,2.7,2.7,0,0,1-1.12,1.83,2.78,2.78,0,0,1-3.88-.62A2.74,2.74,0,0,1,55,150.55Z"/><path class="cls-1" d="M28.7,165.29a15.73,15.73,0,0,1,6.71-10.79,16,16,0,0,1,12.19-2.84,16.35,16.35,0,0,1,11,6.59,15.7,15.7,0,0,1,2.95,12.35A16.69,16.69,0,0,1,42.3,184.46a15.79,15.79,0,0,1-10.66-6.67A16.22,16.22,0,0,1,28.7,165.29Z"/><line class="cls-2" x1="57.8" y1="150.97" x2="44.44" y2="168.55"/><path class="cls-3" d="M57.24,150.73a.69.69,0,0,1,.79-.57.64.64,0,0,1,.46.28.62.62,0,0,1,.13.51.71.71,0,0,1-.29.46.68.68,0,0,1-.52.12.71.71,0,0,1-.57-.8Z"/><path class="cls-3" d="M43.91,168.23a.63.63,0,0,1,.28-.45.68.68,0,0,1,.51-.12.69.69,0,1,1-.79.57Z"/><path class="cls-1" d="M36.36,76.84a2.6,2.6,0,0,1,2.06.52,2.66,2.66,0,0,1,1.07,1.8A2.73,2.73,0,0,1,39,81.24a2.65,2.65,0,0,1-1.82,1.1,2.73,2.73,0,0,1-2.09-.52A2.69,2.69,0,0,1,34,80a2.62,2.62,0,0,1,.52-2A2.7,2.7,0,0,1,36.36,76.84Z"/><path class="cls-1" d="M14.35,56.19a15.76,15.76,0,0,1,12.31,3.13,16.06,16.06,0,0,1,6.4,10.77,16.4,16.4,0,0,1-3,12.44,15.66,15.66,0,0,1-10.88,6.54A16.16,16.16,0,0,1,6.75,86a16.12,16.12,0,0,1-6.56-11A15.82,15.82,0,0,1,3.33,62.77,16.17,16.17,0,0,1,14.35,56.19Z"/><line class="cls-2" x1="36.8" y1="79.6" x2="16" y2="72.18"/><path class="cls-3" d="M36.86,79a.66.66,0,0,1,.51.13.71.71,0,0,1,.27.45.68.68,0,0,1-.12.52.67.67,0,0,1-.46.27.65.65,0,0,1-.52-.13.63.63,0,0,1-.27-.46.64.64,0,0,1,.13-.51A.69.69,0,0,1,36.86,79Z"/><path class="cls-3" d="M16.15,71.58a.69.69,0,0,1,.78.58.68.68,0,0,1-.12.52.66.66,0,0,1-.46.27.66.66,0,0,1-.52-.13.69.69,0,0,1-.27-.46.64.64,0,0,1,.13-.51A.69.69,0,0,1,16.15,71.58Z"/><circle class="cls-3" cx="96" cy="101.71" r="1.55"/></g></g></svg>