<svg xmlns="http://www.w3.org/2000/svg" xmlns:xlink="http://www.w3.org/1999/xlink" viewBox="0 0 1924 913.44"><defs><style>.cls-1{fill:#fff;}.cls-2{fill:#424850;}.cls-3{fill:url(#linear-gradient);}.cls-4{fill:url(#linear-gradient-2);}</style><linearGradient id="linear-gradient" x1="1396.98" y1="329.88" x2="1396.98" y2="-126.84" gradientTransform="translate(1926.24 329.88) rotate(180)" gradientUnits="userSpaceOnUse"><stop offset="0" stop-color="#424850"/><stop offset="0.11" stop-color="#494b4f"/><stop offset="0.27" stop-color="#5d534c"/><stop offset="0.47" stop-color="#7d6046"/><stop offset="0.69" stop-color="#aa723f"/><stop offset="0.93" stop-color="#e38935"/><stop offset="1" stop-color="#f69132"/></linearGradient><linearGradient id="linear-gradient-2" x1="697.39" y1="329.88" x2="697.39" y2="-41.76" gradientTransform="matrix(1, 0, 0, -1, 858.73, 329.88)" xlink:href="#linear-gradient"/></defs><title>Asset 2</title><g id="Layer_2" data-name="Layer 2"><g id="Layer_1-2" data-name="Layer 1"><rect class="cls-1" x="2.24" y="0.07" width="1919.51" height="913.37"/><path class="cls-2" d="M1924,783.3s-313.47-69.4-722.47-21.36C246,874.21,0,891.07,0,891.07v22.37H1924Z"/><path class="cls-3" d="M0,0H1058.54S979.76,134.18,786.93,199.07C618.1,255.88,537.76,165.25,289.76,371.64,169.26,471.91,0,455.76,0,455.76Z"/><path class="cls-4" d="M1924,0H1188.24S1243,109.19,1377,162c117.35,46.23,173.19-27.52,345.57,140.42C1806.35,384,1924,370.86,1924,370.86Z"/></g></g></svg>