<svg xmlns="http://www.w3.org/2000/svg" viewBox="0 0 338.4 247.64"><defs><style>.cls-1{fill:#505557;}.cls-2{fill:#f69233;}.cls-3{fill:#626769;}</style></defs><title>Asset 1</title><g id="Layer_2" data-name="Layer 2"><g id="Layer_1-2" data-name="Layer 1"><path class="cls-1" d="M338.32,111.82q0,66.38.08,132.75c0,2.57-.51,3.08-3.08,3.07q-166.12-.12-332.25,0c-2.56,0-3.08-.5-3.07-3.07q.15-65.25.07-130.5c2-.45,3.23,1.07,4.6,2,7.08,5,14.51,9.2,23.11,11.17,5.33,1.21,10.45.34,15.57-.72C55.65,124,67,118.63,78.77,114.45c8.12-2.88,16.08-6.23,24.32-8.76,14.86-4.56,28.78-2.21,42.22,5.27,11.59,6.44,22.59,13.82,34.08,20.41,10.38,5.95,20.24,12.84,32,16.32a31.09,31.09,0,0,0,21.21-1.2,160.29,160.29,0,0,0,24.8-13.15c12.82-8,25.74-15.85,39.09-23C310.7,102.79,324.64,103.18,338.32,111.82Z"/><path class="cls-2" d="M.07,78.82c0-25.35,0-50.71,0-76.06C0,.69.23,0,2.64,0Q169.19.12,335.75,0c2.39,0,2.63.67,2.62,2.75-.08,22.61-.05,45.22-.05,67.82-1.25,1-2.59.59-3.94.28-19.89-4.6-40-5.19-60.31-3.76-26.28,1.86-52.42,5.06-78.64,7.42-18.77,1.68-37.54,3.33-56.32,4.84-16.79,1.36-33.59,2.53-50.36,4.2C60.4,86.38,32.16,85.84,4.08,80.64A6.81,6.81,0,0,1,.07,78.82Z"/><path class="cls-3" d="M.07,78.82C20.64,82.16,41.27,85,62.18,84c18.67-1,37.31-2.45,55.92-4.2,10.55-1,21.14-1.53,31.7-2.47,18.49-1.64,37-3.41,55.44-5.14,14.15-1.32,28.31-2.54,42.44-4,18.37-1.92,36.73-3.68,55.23-2.88a195.21,195.21,0,0,1,35.41,5.29v41.25c-4.64-.49-8.46-3.27-12.84-4.63-8.61-2.67-16.81-1.38-24.36,2.14-13.37,6.24-25.91,14.08-38.38,22-9.64,6.12-19.52,11.93-30.11,16.37S211.86,150,202,145.26c-13.11-6.34-25.24-14.38-37.67-21.9-8.49-5.14-16.85-10.48-25.86-14.68-12.28-5.72-24.79-5.63-37.35-1.23q-18.43,6.45-36.7,13.37a185.47,185.47,0,0,1-21.22,6.87c-11.13,2.77-21.17.18-30.69-5.38-4.29-2.5-8.31-5.48-12.45-8.24Z"/></g></g></svg>