<svg xmlns="http://www.w3.org/2000/svg" viewBox="0 0 1920 913.51"><defs><style>.cls-1{fill:#fff;}.cls-2{fill:#69D2E7;}</style></defs><title>Asset 2</title><g id="Layer_2" data-name="Layer 2"><g id="Layer_1-2" data-name="Layer 1"><rect class="cls-1" x="0.49" y="0.14" width="1919.51" height="913.37"/><path class="cls-2" d="M.41,428.75C.41,285.88.57,143,0,.14c.45-.32,1920,0,1920,0s-.41,280.9-.41,421.35c-11.52,1.46-18.29-3.44-26.07-6.58-40.18-16.22-82.37-29.71-131.17-36.05-30.23-3.94-59.25-1.11-88.29,2.32-69.8,8.24-134.26,25.6-201,39.08-46.08,9.32-91.23,20.12-138,28.3-84.28,14.73-163.3,7.13-239.56-17-65.72-20.81-128.17-44.64-193.33-65.91C843.3,346.43,787.35,324.19,720.88,313c-41.89-7.09-81.09-5.11-120.31,3.88-49.49,11.35-95.61,26.4-140.75,42.45-72.73,25.86-146,51.18-221.76,74.13C157.16,457.93,78,456.66.41,428.75Z"/></g></g></svg>